<svg id="Layer_1" data-name="Layer 1" xmlns="http://www.w3.org/2000/svg" viewBox="0 0 183.35 52.22">
  <defs>
    <style>.cls-1{fill:#f9f9f9;}</style>
  </defs>
  <path class="cls-1" d="M135.41,141.91h4.94a4.68,4.68,0,0,1-.61,2.32,4.07,4.07,0,0,1-1.78,1.62,6.36,6.36,0,0,1-2.82.58,5.62,5.62,0,0,1-3.18-.89,5.75,5.75,0,0,1-2-2.59,10.48,10.48,0,0,1-.72-4.1,9.93,9.93,0,0,1,.74-4.07,5.67,5.67,0,0,1,2.06-2.55,5.47,5.47,0,0,1,3.12-.89,6.13,6.13,0,0,1,1.7.23,4.46,4.46,0,0,1,1.37.66,4.2,4.2,0,0,1,1,1.05,5.07,5.07,0,0,1,.65,1.41h5.48a8.46,8.46,0,0,0-1.1-3.26,9.15,9.15,0,0,0-2.23-2.58,10.33,10.33,0,0,0-3.15-1.67,12.57,12.57,0,0,0-8.27.23,10.36,10.36,0,0,0-3.61,2.41,11.09,11.09,0,0,0-2.41,3.88,14.57,14.57,0,0,0-.87,5.22,13.89,13.89,0,0,0,1.44,6.53,10.27,10.27,0,0,0,4,4.24,12.66,12.66,0,0,0,11.38.27,9,9,0,0,0,3.7-3.5,10.53,10.53,0,0,0,1.35-5.46v-3.1H135.41Z" transform="translate(-57.92 -98.97)" />
  <polygon class="cls-1" points="151.14 42.13 161.29 42.13 161.29 37.7 151.14 37.7 151.14 32.38 162.13 32.38 162.13 27.95 145.73 27.95 145.73 51.89 162.16 51.89 162.16 47.46 151.14 47.46 151.14 42.13" />
  <path class="cls-1" d="M240.76,141.34a6.05,6.05,0,0,0-1.45-2,8.94,8.94,0,0,0-2.29-1.48,14.46,14.46,0,0,0-3-1l-2.1-.49a13.7,13.7,0,0,1-1.48-.42,5.3,5.3,0,0,1-1.17-.56,2.35,2.35,0,0,1-.76-.78,1.9,1.9,0,0,1-.25-1,2.22,2.22,0,0,1,.42-1.27,2.76,2.76,0,0,1,1.21-.88,5.31,5.31,0,0,1,2-.33,4.48,4.48,0,0,1,2.76.76,2.85,2.85,0,0,1,1.12,2.11h5.18a6.79,6.79,0,0,0-1.14-3.85,7.42,7.42,0,0,0-3.15-2.58,11.22,11.22,0,0,0-4.73-.92,11.6,11.6,0,0,0-4.77.92,7.86,7.86,0,0,0-3.28,2.57,6.42,6.42,0,0,0-1.18,3.85,5.41,5.41,0,0,0,1.76,4.26,10.94,10.94,0,0,0,4.84,2.31l2.56.62a12.89,12.89,0,0,1,2.18.68,3.29,3.29,0,0,1,1.32.89,2,2,0,0,1,.45,1.26,2.28,2.28,0,0,1-.5,1.42,3.13,3.13,0,0,1-1.37,1,5.86,5.86,0,0,1-2.12.34,6.13,6.13,0,0,1-2.3-.4,3.37,3.37,0,0,1-2.23-3.15h-5.22a8.16,8.16,0,0,0,1.28,4.48,7.33,7.33,0,0,0,3.4,2.69,13.44,13.44,0,0,0,5.13.89,13.22,13.22,0,0,0,5.06-.87,7.24,7.24,0,0,0,3.22-2.49,6.57,6.57,0,0,0,1.12-3.85A6.46,6.46,0,0,0,240.76,141.34Z" transform="translate(-57.92 -98.97)" />
  <polygon class="cls-1" points="128.37 43.99 127.82 43.99 123.22 27.95 114.12 27.95 114.12 51.89 119.48 51.89 119.48 34.48 120.52 34.48 125.42 51.76 130.77 51.76 135.65 34.48 136.73 34.48 136.73 51.89 142.08 51.89 142.08 27.95 132.97 27.95 128.37 43.99" />
  <path class="cls-1" d="M154,126.91l-8.05,24h5.81l1.56-5.25h8.71l1.56,5.25h5.8l-8-24Zm.57,14.52,2.61-8.78h1l2.61,8.78Z" transform="translate(-57.92 -98.97)" />
  <rect class="cls-1" x="89.02" y="0.33" width="5.41" height="23.94" />
  <path class="cls-1" d="M160.91,122.12a12.22,12.22,0,0,0,11.53,0,10.33,10.33,0,0,0,4.05-4.18,15.62,15.62,0,0,0,0-13.36,10.27,10.27,0,0,0-4.05-4.18,12.26,12.26,0,0,0-11.53,0,10.29,10.29,0,0,0-4.06,4.18,15.67,15.67,0,0,0,0,13.34A10.38,10.38,0,0,0,160.91,122.12Zm.67-15a5.53,5.53,0,0,1,2-2.55,5.92,5.92,0,0,1,6.18,0,5.66,5.66,0,0,1,2,2.55,12.47,12.47,0,0,1,0,8.24,5.66,5.66,0,0,1-2,2.55,5.92,5.92,0,0,1-6.18,0,5.53,5.53,0,0,1-2-2.55,12.15,12.15,0,0,1,0-8.24Z" transform="translate(-57.92 -98.97)" />
  <path class="cls-1" d="M130.16,114.89h5.56l2.78,8.35h5.93l-3.09-9h-4.2l-.25-.78a8.5,8.5,0,0,0,3.38-1.22,6.33,6.33,0,0,0,2.78-5.2h0a7.67,7.67,0,0,0-1-4,6.92,6.92,0,0,0-3-2.74,10.37,10.37,0,0,0-4.65-1h-9.66v23.94h5.42Zm0-11.2h3.14a5.9,5.9,0,0,1,2.3.39,2.92,2.92,0,0,1,1.4,1.18,3.12,3.12,0,0,1,.47,1.79,3.07,3.07,0,0,1-.46,1.76,2.91,2.91,0,0,1-1.39,1.13,6.21,6.21,0,0,1-2.31.37h-3.15Z" transform="translate(-57.92 -98.97)" />
  <path class="cls-1" d="M184.74,103.73h3.06l.25.77a8.85,8.85,0,0,0-3.31,1.18v17.55h5.34V103.72h6.23V99.29H178.5v4.43h6.24Z" transform="translate(-57.92 -98.97)" />
  <polygon class="cls-1" points="34.13 0.33 25.33 4.25 11.91 10.25 0 15.56 3.83 30.31 7.55 44.64 12.01 44.09 14.16 43.83 12.81 30.17 12.73 29.39 12.74 29.39 12.34 25.39 14.24 24.3 14.4 24.21 15.08 28.04 15.76 31.88 17.81 43.38 18.02 43.36 27.87 42.15 28.1 42.12 27.06 31.59 26.48 25.69 26.08 21.69 28.22 20.46 28.22 20.47 28.9 24.29 29.44 27.34 31.99 41.64 42.26 40.38 42.44 40.36 41.95 35.43 40.21 17.76 40.85 17.39 41.96 16.75 42.04 16.7 46.17 39.9 52.13 39.17 56.34 38.65 56.34 8.45 56.34 6.22 39.37 1.72 34.13 0.33" />
  <polygon class="cls-1" points="46.79 43.35 36.16 44.66 32.61 45.09 33.09 47.83 48.05 50.47 56.34 51.93 56.34 42.18 52.13 42.7 46.79 43.35" />
</svg>